<svg id="Component_8_63" data-name="Component 8 – 63" fill="currentColor" xmlns="http://www.w3.org/2000/svg" width="24" height="24" viewBox="0 0 24 24">
  <g id="Ellipse_1" data-name="Ellipse 1"   stroke-width="1">
    <circle cx="3" cy="3" r="3" stroke="none"/>
    <circle cx="3" cy="3" r="2.5" fill="none"/>
  </g>
  <g id="Ellipse_6" data-name="Ellipse 6" transform="translate(9)"   stroke-width="1">
    <circle cx="3" cy="3" r="3" stroke="none"/>
    <circle cx="3" cy="3" r="2.5" fill="none"/>
  </g>
  <g id="Ellipse_9" data-name="Ellipse 9" transform="translate(18)"   stroke-width="1">
    <circle cx="3" cy="3" r="3" stroke="none"/>
    <circle cx="3" cy="3" r="2.5" fill="none"/>
  </g>
  <g id="Ellipse_2" data-name="Ellipse 2" transform="translate(0 9)"   stroke-width="1">
    <circle cx="3" cy="3" r="3" stroke="none"/>
    <circle cx="3" cy="3" r="2.5" fill="none"/>
  </g>
  <g id="Ellipse_5" data-name="Ellipse 5" transform="translate(9 9)"   stroke-width="1">
    <circle cx="3" cy="3" r="3" stroke="none"/>
    <circle cx="3" cy="3" r="2.5" fill="none"/>
  </g>
  <g id="Ellipse_8" data-name="Ellipse 8" transform="translate(18 9)"   stroke-width="1">
    <circle cx="3" cy="3" r="3" stroke="none"/>
    <circle cx="3" cy="3" r="2.5" fill="none"/>
  </g>
  <g id="Ellipse_3" data-name="Ellipse 3" transform="translate(0 18)"   stroke-width="1">
    <circle cx="3" cy="3" r="3" stroke="none"/>
    <circle cx="3" cy="3" r="2.5" fill="none"/>
  </g>
  <g id="Ellipse_4" data-name="Ellipse 4" transform="translate(9 18)"   stroke-width="1">
    <circle cx="3" cy="3" r="3" stroke="none"/>
    <circle cx="3" cy="3" r="2.5" fill="none"/>
  </g>
  <g id="Ellipse_7" data-name="Ellipse 7" transform="translate(18 18)"   stroke-width="1">
    <circle cx="3" cy="3" r="3" stroke="none"/>
    <circle cx="3" cy="3" r="2.5" fill="none"/>
  </g>
</svg>
